<mxfile host="app.diagrams.net" modified="2023-01-18T10:40:02.016Z" agent="5.0 (X11; Linux x86_64) AppleWebKit/537.36 (KHTML, like Gecko) Chrome/109.0.0.0 Safari/537.36" etag="s1awr0-2CthCaB01VjJ9" version="20.8.5" type="github">
  <diagram name="Page-1" id="12e1b939-464a-85fe-373e-61e167be1490">
    <mxGraphModel dx="1173" dy="593" grid="1" gridSize="10" guides="1" tooltips="1" connect="1" arrows="1" fold="1" page="1" pageScale="1.5" pageWidth="1169" pageHeight="826" background="none" math="0" shadow="0">
      <root>
        <mxCell id="0" />
        <mxCell id="1" parent="0" />
        <mxCell id="60da8b9f42644d3a-2" value="" style="whiteSpace=wrap;html=1;rounded=1;shadow=0;strokeWidth=5;fontSize=20;align=center;fillColor=#e51400;strokeColor=#B20000;fontColor=#ffffff;perimeterSpacing=0;gradientColor=none;aspect=fixed;labelBackgroundColor=none;labelBorderColor=none;spacingTop=0;fontFamily=Helvetica;" parent="1" vertex="1">
          <mxGeometry x="316" y="405" width="280" height="430" as="geometry" />
        </mxCell>
        <mxCell id="60da8b9f42644d3a-3" value="CALL FOR STRIKE" style="text;html=1;strokeColor=none;fillColor=none;align=center;verticalAlign=middle;whiteSpace=wrap;rounded=0;shadow=0;fontSize=26;fontColor=#FFFFFF;fontStyle=1;labelBorderColor=none;labelBackgroundColor=none;spacingTop=0;fontFamily=Helvetica;perimeterSpacing=0;strokeWidth=5;" parent="1" vertex="1">
          <mxGeometry x="316" y="425" width="280" height="60" as="geometry" />
        </mxCell>
        <mxCell id="60da8b9f42644d3a-4" value="Unions websites&lt;br&gt;Press&lt;br&gt;&lt;div&gt;Social medias&lt;/div&gt;" style="text;html=1;strokeColor=none;fillColor=none;align=center;verticalAlign=middle;whiteSpace=wrap;rounded=0;shadow=0;fontSize=14;fontColor=#FFFFFF;labelBorderColor=none;labelBackgroundColor=none;spacingTop=0;fontFamily=Helvetica;perimeterSpacing=0;strokeWidth=5;" parent="1" vertex="1">
          <mxGeometry x="316" y="725" width="280" height="90" as="geometry" />
        </mxCell>
        <mxCell id="60da8b9f42644d3a-6" value="" style="line;strokeWidth=5;html=1;rounded=0;shadow=0;fontSize=27;align=center;fillColor=none;strokeColor=#FFFFFF;labelBorderColor=none;labelBackgroundColor=none;spacingTop=0;fontFamily=Helvetica;perimeterSpacing=0;" parent="1" vertex="1">
          <mxGeometry x="336" y="485" width="240" height="10" as="geometry" />
        </mxCell>
        <mxCell id="60da8b9f42644d3a-7" value="" style="line;strokeWidth=5;html=1;rounded=0;shadow=0;fontSize=27;align=center;fillColor=none;strokeColor=#FFFFFF;labelBorderColor=none;labelBackgroundColor=none;spacingTop=0;fontFamily=Helvetica;perimeterSpacing=0;" parent="1" vertex="1">
          <mxGeometry x="336" y="705" width="240" height="10" as="geometry" />
        </mxCell>
        <mxCell id="60da8b9f42644d3a-8" value="Unions" style="ellipse;whiteSpace=wrap;html=1;rounded=0;shadow=0;strokeWidth=5;fontSize=14;align=center;fillColor=#e3c800;strokeColor=#B09500;fontColor=#000000;labelBorderColor=none;labelBackgroundColor=none;spacingTop=0;fontFamily=Helvetica;perimeterSpacing=0;" parent="1" vertex="1">
          <mxGeometry x="259" y="545" width="115" height="115" as="geometry" />
        </mxCell>
        <mxCell id="60da8b9f42644d3a-9" value="" style="html=1;shadow=0;dashed=0;align=center;verticalAlign=middle;shape=mxgraph.arrows2.stylisedArrow;dy=0.6;dx=40;notch=15;feather=0.4;rounded=0;strokeWidth=5;fontSize=27;strokeColor=none;fillColor=#fff2cc;labelBorderColor=none;labelBackgroundColor=none;spacingTop=0;fontFamily=Helvetica;perimeterSpacing=0;" parent="1" vertex="1">
          <mxGeometry x="406" y="573" width="100" height="60" as="geometry" />
        </mxCell>
        <mxCell id="60da8b9f42644d3a-17" value="" style="whiteSpace=wrap;html=1;rounded=1;shadow=0;strokeWidth=5;fontSize=20;align=center;fillColor=#fa6800;strokeColor=#C73500;fontColor=#000000;gradientColor=none;labelBorderColor=none;labelBackgroundColor=none;spacingTop=0;fontFamily=Helvetica;perimeterSpacing=0;" parent="1" vertex="1">
          <mxGeometry x="596" y="405" width="280" height="430" as="geometry" />
        </mxCell>
        <mxCell id="60da8b9f42644d3a-18" value="STRIKE DECLARATION" style="text;html=1;strokeColor=none;fillColor=none;align=center;verticalAlign=middle;whiteSpace=wrap;rounded=0;shadow=0;fontSize=26;fontColor=#FFFFFF;fontStyle=1;labelBorderColor=none;labelBackgroundColor=none;spacingTop=0;fontFamily=Helvetica;perimeterSpacing=0;strokeWidth=5;" parent="1" vertex="1">
          <mxGeometry x="596" y="425" width="280" height="60" as="geometry" />
        </mxCell>
        <mxCell id="60da8b9f42644d3a-19" value="Forms&lt;div&gt;Calls-to-Action&lt;/div&gt;&lt;div&gt;Press&lt;/div&gt;&lt;div&gt;Social medias&lt;/div&gt;" style="text;html=1;strokeColor=none;fillColor=none;align=center;verticalAlign=middle;whiteSpace=wrap;rounded=0;shadow=0;fontSize=14;fontColor=#FFFFFF;labelBorderColor=none;labelBackgroundColor=none;spacingTop=0;fontFamily=Helvetica;perimeterSpacing=0;strokeWidth=5;" parent="1" vertex="1">
          <mxGeometry x="596" y="725" width="280" height="90" as="geometry" />
        </mxCell>
        <mxCell id="60da8b9f42644d3a-20" value="" style="line;strokeWidth=5;html=1;rounded=0;shadow=0;fontSize=27;align=center;fillColor=none;strokeColor=#FFFFFF;labelBorderColor=none;labelBackgroundColor=none;spacingTop=0;fontFamily=Helvetica;perimeterSpacing=0;" parent="1" vertex="1">
          <mxGeometry x="616" y="485" width="240" height="10" as="geometry" />
        </mxCell>
        <mxCell id="60da8b9f42644d3a-21" value="" style="line;strokeWidth=5;html=1;rounded=0;shadow=0;fontSize=27;align=center;fillColor=none;strokeColor=#FFFFFF;labelBorderColor=none;labelBackgroundColor=none;spacingTop=0;fontFamily=Helvetica;perimeterSpacing=0;" parent="1" vertex="1">
          <mxGeometry x="616" y="705" width="240" height="10" as="geometry" />
        </mxCell>
        <mxCell id="60da8b9f42644d3a-22" value="Unions&lt;br&gt;Workers" style="ellipse;whiteSpace=wrap;html=1;rounded=0;shadow=0;strokeWidth=5;fontSize=14;align=center;fillColor=#f0a30a;strokeColor=#BD7000;fontColor=#000000;labelBorderColor=none;labelBackgroundColor=none;spacingTop=0;fontFamily=Helvetica;perimeterSpacing=0;" parent="1" vertex="1">
          <mxGeometry x="539" y="545" width="115" height="115" as="geometry" />
        </mxCell>
        <mxCell id="60da8b9f42644d3a-23" value="" style="html=1;shadow=0;dashed=0;align=center;verticalAlign=middle;shape=mxgraph.arrows2.stylisedArrow;dy=0.6;dx=40;notch=15;feather=0.4;rounded=0;strokeWidth=5;fontSize=27;strokeColor=none;fillColor=#fff2cc;labelBorderColor=none;labelBackgroundColor=none;spacingTop=0;fontFamily=Helvetica;perimeterSpacing=0;" parent="1" vertex="1">
          <mxGeometry x="686" y="573" width="100" height="60" as="geometry" />
        </mxCell>
        <mxCell id="60da8b9f42644d3a-24" value="" style="whiteSpace=wrap;html=1;rounded=1;shadow=0;strokeWidth=5;fontSize=20;align=center;fillColor=#f0a30a;strokeColor=#BD7000;fontColor=#000000;gradientColor=none;labelBorderColor=none;labelBackgroundColor=none;spacingTop=0;fontFamily=Helvetica;perimeterSpacing=0;" parent="1" vertex="1">
          <mxGeometry x="876" y="405" width="280" height="430" as="geometry" />
        </mxCell>
        <mxCell id="60da8b9f42644d3a-25" value="PROTEST/STRIKE ORGANIZATION" style="text;html=1;strokeColor=none;fillColor=none;align=center;verticalAlign=middle;whiteSpace=wrap;rounded=0;shadow=0;fontSize=26;fontColor=#FFFFFF;fontStyle=1;labelBorderColor=none;labelBackgroundColor=none;spacingTop=0;fontFamily=Helvetica;perimeterSpacing=0;strokeWidth=5;" parent="1" vertex="1">
          <mxGeometry x="876" y="425" width="280" height="60" as="geometry" />
        </mxCell>
        <mxCell id="60da8b9f42644d3a-26" value="Streets&lt;br&gt;Press&lt;br&gt;Social medias" style="text;html=1;strokeColor=none;fillColor=none;align=center;verticalAlign=middle;whiteSpace=wrap;rounded=0;shadow=0;fontSize=14;fontColor=#FFFFFF;labelBorderColor=none;labelBackgroundColor=none;spacingTop=0;fontFamily=Helvetica;perimeterSpacing=0;strokeWidth=5;" parent="1" vertex="1">
          <mxGeometry x="876" y="725" width="280" height="90" as="geometry" />
        </mxCell>
        <mxCell id="60da8b9f42644d3a-27" value="" style="line;strokeWidth=5;html=1;rounded=0;shadow=0;fontSize=27;align=center;fillColor=none;strokeColor=#FFFFFF;labelBorderColor=none;labelBackgroundColor=none;spacingTop=0;fontFamily=Helvetica;perimeterSpacing=0;" parent="1" vertex="1">
          <mxGeometry x="896" y="485" width="240" height="10" as="geometry" />
        </mxCell>
        <mxCell id="60da8b9f42644d3a-28" value="" style="line;strokeWidth=5;html=1;rounded=0;shadow=0;fontSize=27;align=center;fillColor=none;strokeColor=#FFFFFF;labelBorderColor=none;labelBackgroundColor=none;spacingTop=0;fontFamily=Helvetica;perimeterSpacing=0;" parent="1" vertex="1">
          <mxGeometry x="896" y="705" width="240" height="10" as="geometry" />
        </mxCell>
        <mxCell id="60da8b9f42644d3a-29" value="Unions&lt;br&gt;Workers&lt;br&gt;General public" style="ellipse;whiteSpace=wrap;html=1;rounded=0;shadow=0;strokeWidth=5;fontSize=14;align=center;fillColor=#fa6800;strokeColor=#C73500;fontColor=#000000;labelBorderColor=none;labelBackgroundColor=none;spacingTop=0;fontFamily=Helvetica;perimeterSpacing=0;" parent="1" vertex="1">
          <mxGeometry x="819" y="545" width="115" height="115" as="geometry" />
        </mxCell>
        <mxCell id="60da8b9f42644d3a-30" value="" style="html=1;shadow=0;dashed=0;align=center;verticalAlign=middle;shape=mxgraph.arrows2.stylisedArrow;dy=0.6;dx=40;notch=15;feather=0.4;rounded=0;strokeWidth=5;fontSize=27;strokeColor=none;fillColor=#fff2cc;labelBorderColor=none;labelBackgroundColor=none;spacingTop=0;fontFamily=Helvetica;perimeterSpacing=0;" parent="1" vertex="1">
          <mxGeometry x="966" y="573" width="100" height="60" as="geometry" />
        </mxCell>
        <mxCell id="60da8b9f42644d3a-31" value="" style="whiteSpace=wrap;html=1;rounded=1;shadow=0;strokeWidth=5;fontSize=20;align=center;fillColor=#e3c800;strokeColor=#B09500;fontColor=#000000;gradientColor=none;gradientDirection=east;labelBorderColor=none;labelBackgroundColor=none;spacingTop=0;fontFamily=Helvetica;perimeterSpacing=0;" parent="1" vertex="1">
          <mxGeometry x="1156" y="403" width="280" height="430" as="geometry" />
        </mxCell>
        <mxCell id="60da8b9f42644d3a-32" value="GOVERNMENT ACTION" style="text;html=1;strokeColor=none;fillColor=none;align=center;verticalAlign=middle;whiteSpace=wrap;rounded=0;shadow=0;fontSize=26;fontColor=#FFFFFF;fontStyle=1;labelBorderColor=none;labelBackgroundColor=none;spacingTop=0;fontFamily=Helvetica;perimeterSpacing=0;strokeWidth=5;" parent="1" vertex="1">
          <mxGeometry x="1156" y="425" width="280" height="60" as="geometry" />
        </mxCell>
        <mxCell id="60da8b9f42644d3a-33" value="Note: Is highy subject to fail" style="text;html=1;strokeColor=none;fillColor=none;align=center;verticalAlign=middle;whiteSpace=wrap;rounded=0;shadow=0;fontSize=14;fontColor=#FFFFFF;labelBorderColor=none;labelBackgroundColor=none;spacingTop=0;fontFamily=Helvetica;perimeterSpacing=0;strokeWidth=5;" parent="1" vertex="1">
          <mxGeometry x="1156" y="725" width="280" height="90" as="geometry" />
        </mxCell>
        <mxCell id="60da8b9f42644d3a-34" value="" style="line;strokeWidth=5;html=1;rounded=0;shadow=0;fontSize=27;align=center;fillColor=none;strokeColor=#FFFFFF;labelBorderColor=none;labelBackgroundColor=none;spacingTop=0;fontFamily=Helvetica;perimeterSpacing=0;" parent="1" vertex="1">
          <mxGeometry x="1176" y="485" width="240" height="10" as="geometry" />
        </mxCell>
        <mxCell id="60da8b9f42644d3a-35" value="" style="line;strokeWidth=5;html=1;rounded=0;shadow=0;fontSize=27;align=center;fillColor=none;strokeColor=#FFFFFF;labelBorderColor=none;labelBackgroundColor=none;spacingTop=0;fontFamily=Helvetica;perimeterSpacing=0;" parent="1" vertex="1">
          <mxGeometry x="1176" y="705" width="240" height="10" as="geometry" />
        </mxCell>
        <mxCell id="60da8b9f42644d3a-36" value="Unions&lt;br&gt;Workers&lt;br&gt;General public&lt;br&gt;Press" style="ellipse;whiteSpace=wrap;html=1;rounded=0;shadow=0;strokeWidth=5;fontSize=14;align=center;fillColor=#e51400;strokeColor=#B20000;fontColor=#ffffff;labelBorderColor=none;labelBackgroundColor=none;spacingTop=0;fontFamily=Helvetica;perimeterSpacing=0;" parent="1" vertex="1">
          <mxGeometry x="1099" y="545" width="115" height="115" as="geometry" />
        </mxCell>
        <mxCell id="60da8b9f42644d3a-37" value="" style="html=1;shadow=0;dashed=0;align=center;verticalAlign=middle;shape=mxgraph.arrows2.stylisedArrow;dy=0.6;dx=40;notch=15;feather=0.4;rounded=0;strokeWidth=5;fontSize=27;strokeColor=none;fillColor=#fff2cc;labelBorderColor=none;labelBackgroundColor=none;spacingTop=0;fontFamily=Helvetica;perimeterSpacing=0;" parent="1" vertex="1">
          <mxGeometry x="1246" y="573" width="100" height="60" as="geometry" />
        </mxCell>
        <mxCell id="60da8b9f42644d3a-38" value="Government&lt;br&gt;Unions" style="ellipse;whiteSpace=wrap;html=1;rounded=0;shadow=0;strokeWidth=5;fontSize=14;align=center;fillColor=#a20025;strokeColor=#6F0000;fontColor=#ffffff;labelBorderColor=none;labelBackgroundColor=none;spacingTop=0;fontFamily=Helvetica;perimeterSpacing=0;" parent="1" vertex="1">
          <mxGeometry x="1379" y="545" width="115" height="115" as="geometry" />
        </mxCell>
      </root>
    </mxGraphModel>
  </diagram>
</mxfile>
